<?xml version="1.0"?>
<!DOCTYPE svg PUBLIC "-//W3C//DTD SVG 1.1//EN" "http://www.w3.org/Graphics/SVG/1.1/DTD/svg11.dtd">
<svg width="885.3599999999999mm" height="837.3599999999999mm" viewBox="0 0 885.3599999999999 837.3599999999999" xmlns="http://www.w3.org/2000/svg" version="1.1">
<g id="Sketch" transform="translate(258.680000,578.680000) scale(1,-1)">
<path id="Sketch_w0000"  d="M 12.0 -250.0 L 244.0 -250.0 L 244.0 -194.44444444444446 L 250.0 -194.44444444444446 L 250.0 -138.88888888888889 L 244.0 -138.88888888888889 L 244.0 -83.33333333333333 L 250.0 -83.33333333333333 L 250.0 -27.77777777777778 L 244.0 -27.77777777777778 L 244.0 27.77777777777778 L 250.0 27.77777777777778 L 250.0 83.33333333333333 L 244.0 83.33333333333333 L 244.0 138.88888888888889 L 250.0 138.88888888888889 L 250.0 194.44444444444446 L 244.0 194.44444444444446 L 244.0 250.0 L -244.0 250.0 L -244.0 194.44444444444446 L -250.0 194.44444444444446 L -250.0 138.88888888888889 L -244.0 138.88888888888889 L -244.0 83.33333333333333 L -250.0 83.33333333333333 L -250.0 27.77777777777778 L -244.0 27.77777777777778 L -244.0 -27.77777777777778 L -250.0 -27.77777777777778 L -250.0 -83.33333333333333 L -244.0 -83.33333333333333 L -244.0 -138.88888888888889 L -250.0 -138.88888888888889 L -250.0 -194.44444444444446 L -244.0 -194.44444444444446 L -244.0 -250.0 L -12.0 -250.0 L -12.0 1.47e-15 A 12 12 0 0 0 -2 11.8322L -1.9999999999999991 28.0 L 2.0 28.0 L 2.0 11.832159566199232 A 12 12 0 0 0 12 2.93915e-15L 12.0 -250.0 " stroke="#000000" stroke-width="0.35 px" style="stroke-width:0.35;stroke-miterlimit:4;stroke-dasharray:none;fill:none;fill-opacity:1;fill-rule: evenodd"/>
<path id="Sketch_w0001"  d="M 208.88377129369297 -146.26199126951667 L 176.11768952213328 -123.31893381547484 A 215 215 0 0 0 123.319 -176.118L 146.26199126951676 -208.88377129369292 A 255 255 0 0 1 208.884 -146.262" stroke="#000000" stroke-width="0.35 px" style="stroke-width:0.35;stroke-miterlimit:4;stroke-dasharray:none;fill:none;fill-opacity:1;fill-rule: evenodd"/>
<title>b'Sketch'</title>
</g>
<g id="Sketch001" transform="translate(258.680000,578.680000) scale(1,-1)">
<path id="Sketch001_w0000"  d="M 267.99999999999994 293.9999999999998 L 267.99999999999994 303.9999999999998 A 16 16 0 0 1 268 336L 268.0 345.9999999999998 L 557.9999999999999 569.9999999999999 L 618.0 569.9999999999999 L 618.0 514.4444444444443 L 612.0 514.4444444444443 L 612.0 458.88888888888874 L 618.0 458.88888888888874 L 618.0 403.33333333333314 L 612.0 403.33333333333314 L 612.0 347.7777777777776 L 618.0 347.7777777777776 L 618.0 292.22222222222206 L 612.0 292.22222222222206 L 612.0 236.6666666666665 L 618.0 236.6666666666665 L 618.0 181.11111111111092 L 612.0 181.11111111111092 L 612.0 125.55555555555532 L 618.0 125.55555555555532 L 618.0 69.99999999999977 L 558.0 69.9999999999998 L 267.99999999999994 293.9999999999998 " stroke="#000000" stroke-width="0.35 px" style="stroke-width:0.35;stroke-miterlimit:4;stroke-dasharray:none;fill:none;fill-opacity:1;fill-rule: evenodd"/>
<path id="Sketch001_w0001"  d="M 411.9999999999999 433.99999999999983 L 411.9999999999999 439.99999999999983 L 431.99999999999994 439.99999999999983 L 431.99999999999994 433.99999999999983 L 411.9999999999999 433.99999999999983 " stroke="#000000" stroke-width="0.35 px" style="stroke-width:0.35;stroke-miterlimit:4;stroke-dasharray:none;fill:none;fill-opacity:1;fill-rule: evenodd"/>
<path id="Sketch001_w0002"  d="M 451.99999999999994 433.99999999999983 L 451.99999999999994 439.99999999999983 L 471.99999999999994 439.99999999999983 L 471.99999999999994 433.99999999999983 L 451.99999999999994 433.99999999999983 " stroke="#000000" stroke-width="0.35 px" style="stroke-width:0.35;stroke-miterlimit:4;stroke-dasharray:none;fill:none;fill-opacity:1;fill-rule: evenodd"/>
<path id="Sketch001_w0003"  d="M 491.99999999999994 433.99999999999983 L 491.99999999999994 439.99999999999983 L 511.99999999999994 439.99999999999983 L 511.99999999999994 433.99999999999983 L 491.99999999999994 433.99999999999983 " stroke="#000000" stroke-width="0.35 px" style="stroke-width:0.35;stroke-miterlimit:4;stroke-dasharray:none;fill:none;fill-opacity:1;fill-rule: evenodd"/>
<path id="Sketch001_w0004"  d="M 532.0 433.9999999999999 L 532.0 439.9999999999999 L 552.0 439.9999999999999 L 552.0 433.9999999999999 L 532.0 433.9999999999999 " stroke="#000000" stroke-width="0.35 px" style="stroke-width:0.35;stroke-miterlimit:4;stroke-dasharray:none;fill:none;fill-opacity:1;fill-rule: evenodd"/>
<path id="Sketch001_w0005"  d="M 572.0 433.9999999999999 L 572.0 439.9999999999999 L 592.0 439.9999999999999 L 592.0 433.9999999999999 L 572.0 433.9999999999999 " stroke="#000000" stroke-width="0.35 px" style="stroke-width:0.35;stroke-miterlimit:4;stroke-dasharray:none;fill:none;fill-opacity:1;fill-rule: evenodd"/>
<path id="Sketch001_w0006"  d="M 473.0 304.9999999999998 L 473.0 334.9999999999998 L 533.0 334.99999999999983 L 533.0 304.99999999999983 L 473.0 304.9999999999998 " stroke="#000000" stroke-width="0.35 px" style="stroke-width:0.35;stroke-miterlimit:4;stroke-dasharray:none;fill:none;fill-opacity:1;fill-rule: evenodd"/>
<title>b'Sketch001'</title>
</g>
<g id="Sketch002" transform="translate(258.680000,578.680000) scale(1,-1)">
<path id="Sketch002_w0000"  d="M 600.0 -26.000000000000135 L 600.0 -16.000000000000135 A 16 16 0 1 0 600 16L 599.9999999999999 25.999999999999865 L 310.0 249.99999999999994 L 250.0 249.99999999999994 L 250.0 194.4444444444444 L 256.0 194.4444444444444 L 255.99999999999997 138.88888888888883 L 249.99999999999997 138.88888888888883 L 249.99999999999997 83.33333333333327 L 255.99999999999997 83.33333333333327 L 255.99999999999994 27.77777777777772 L 249.99999999999994 27.77777777777772 L 249.99999999999994 -27.777777777777835 L 255.99999999999994 -27.777777777777835 L 255.99999999999991 -83.33333333333339 L 249.99999999999991 -83.33333333333339 L 249.99999999999991 -138.88888888888894 L 255.99999999999991 -138.88888888888894 L 255.9999999999999 -194.4444444444445 L 249.9999999999999 -194.4444444444445 L 249.9999999999999 -250.00000000000006 L 309.9999999999999 -250.00000000000003 L 600.0 -26.000000000000135 " stroke="#000000" stroke-width="0.35 px" style="stroke-width:0.35;stroke-miterlimit:4;stroke-dasharray:none;fill:none;fill-opacity:1;fill-rule: evenodd"/>
<path id="Sketch002_w0001"  d="M 456.0 113.99999999999987 L 456.0 119.99999999999987 L 436.0 119.99999999999987 L 436.0 113.99999999999987 L 456.0 113.99999999999987 " stroke="#000000" stroke-width="0.35 px" style="stroke-width:0.35;stroke-miterlimit:4;stroke-dasharray:none;fill:none;fill-opacity:1;fill-rule: evenodd"/>
<path id="Sketch002_w0002"  d="M 416.0 113.99999999999987 L 416.0 119.99999999999987 L 396.0 119.99999999999989 L 396.0 113.99999999999989 L 416.0 113.99999999999987 " stroke="#000000" stroke-width="0.35 px" style="stroke-width:0.35;stroke-miterlimit:4;stroke-dasharray:none;fill:none;fill-opacity:1;fill-rule: evenodd"/>
<path id="Sketch002_w0003"  d="M 376.0 113.99999999999989 L 376.0 119.99999999999989 L 356.0 119.99999999999989 L 356.0 113.99999999999989 L 376.0 113.99999999999989 " stroke="#000000" stroke-width="0.35 px" style="stroke-width:0.35;stroke-miterlimit:4;stroke-dasharray:none;fill:none;fill-opacity:1;fill-rule: evenodd"/>
<path id="Sketch002_w0004"  d="M 336.0 113.9999999999999 L 336.0 119.9999999999999 L 316.0 119.9999999999999 L 316.0 113.9999999999999 L 336.0 113.9999999999999 " stroke="#000000" stroke-width="0.35 px" style="stroke-width:0.35;stroke-miterlimit:4;stroke-dasharray:none;fill:none;fill-opacity:1;fill-rule: evenodd"/>
<path id="Sketch002_w0005"  d="M 296.0 113.9999999999999 L 296.0 119.9999999999999 L 275.99999999999994 119.99999999999991 L 275.99999999999994 113.99999999999991 L 296.0 113.9999999999999 " stroke="#000000" stroke-width="0.35 px" style="stroke-width:0.35;stroke-miterlimit:4;stroke-dasharray:none;fill:none;fill-opacity:1;fill-rule: evenodd"/>
<title>b'Sketch002'</title>
</g>
<g id="Sketch003" transform="translate(258.680000,578.680000) scale(1,-1)">
<path id="Sketch003_w0000"  d="M 244.0 266.0 L 244.0 286.0 L 250.0 286.0 L 250.0 306.0 L 244.0 306.0 L 244.0 326.0 L 250.0 326.0 L 250.0 346.0 L 244.0 346.0 L 244.0 366.0 L 250.0 366.0 L 250.0 386.0 L 244.0 386.0 L 244.0 406.0 L 250.0 406.0 L 250.0 426.0 L 244.0 426.0 L 244.0 446.0 L 250.0 446.0 L 250.0 466.0 L -250.0 466.0 L -250.0 446.0 L -244.0 446.0 L -244.0 426.0 L -250.0 426.0 L -250.0 406.0 L -244.0 406.0 L -244.0 386.0 L -250.0 386.0 L -250.0 366.0 L -244.0 366.0 L -244.0 346.0 L -250.0 346.0 L -250.0 326.0 L -244.0 326.0 L -244.0 306.0 L -250.0 306.0 L -250.0 286.0 L -244.0 286.0 L -244.0 266.0 L 244.0 266.0 " stroke="#000000" stroke-width="0.35 px" style="stroke-width:0.35;stroke-miterlimit:4;stroke-dasharray:none;fill:none;fill-opacity:1;fill-rule: evenodd"/>
<title>b'Sketch003'</title>
</g>
<g id="Sketch004" transform="translate(258.680000,578.680000) scale(1,-1)">
<path id="Sketch004_w0000"  d="M 599.9999999999999 -133.0000000000001 A 13 13 0 1 0 600 -107L 599.9999999999999 -94.00000000000011 L 580.9999999999999 -94.0000000000001 L 580.9999999999999 -146.0000000000001 L 599.9999999999999 -146.0000000000001 L 599.9999999999999 -133.0000000000001 " stroke="#000000" stroke-width="0.35 px" style="stroke-width:0.35;stroke-miterlimit:4;stroke-dasharray:none;fill:none;fill-opacity:1;fill-rule: evenodd"/>
<title>b'Sketch004'</title>
</g>
<g id="Sketch005" transform="translate(258.680000,578.680000) scale(1,-1)">
<path id="Sketch005_w0000"  d="M 599.9999999999999 -197.0000000000001 A 13 13 0 1 0 600 -171L 599.9999999999999 -158.0000000000001 L 580.9999999999999 -158.0000000000001 L 580.9999999999999 -210.0000000000001 L 599.9999999999999 -210.0000000000001 L 599.9999999999999 -197.0000000000001 " stroke="#000000" stroke-width="0.35 px" style="stroke-width:0.35;stroke-miterlimit:4;stroke-dasharray:none;fill:none;fill-opacity:1;fill-rule: evenodd"/>
<title>b'Sketch005'</title>
</g>
<g id="Sketch006" transform="translate(258.680000,578.680000) scale(1,-1)">
<path id="Sketch006_w0000"  d="M 569.9999999999999 -133.00000000000009 A 13 13 0 1 0 570 -107L 569.9999999999999 -94.00000000000009 L 550.9999999999999 -94.00000000000009 L 550.9999999999999 -146.00000000000009 L 569.9999999999999 -146.00000000000009 L 569.9999999999999 -133.00000000000009 " stroke="#000000" stroke-width="0.35 px" style="stroke-width:0.35;stroke-miterlimit:4;stroke-dasharray:none;fill:none;fill-opacity:1;fill-rule: evenodd"/>
<title>b'Sketch006'</title>
</g>
<g id="Sketch007" transform="translate(258.680000,578.680000) scale(1,-1)">
<path id="Sketch007_w0000"  d="M 599.9999999999999 -197.0000000000001 A 13 13 0 0 0 600 -171L 599.9999999999999 -158.0000000000001 L 580.9999999999999 -158.0000000000001 L 580.9999999999999 -210.0000000000001 L 599.9999999999999 -210.0000000000001 L 599.9999999999999 -197.0000000000001 " stroke="#000000" stroke-width="0.35 px" style="stroke-width:0.35;stroke-miterlimit:4;stroke-dasharray:none;fill:none;fill-opacity:1;fill-rule: evenodd"/>
<title>b'Sketch007'</title>
</g>
<g id="Sketch008" transform="translate(258.680000,578.680000) scale(1,-1)">
<path id="Sketch008_w0000"  d="M 569.9999999999999 -197.0000000000001 A 13 13 0 0 0 570 -171L 569.9999999999999 -158.0000000000001 L 550.9999999999999 -158.0000000000001 L 550.9999999999999 -210.0000000000001 L 569.9999999999999 -210.0000000000001 L 569.9999999999999 -197.0000000000001 " stroke="#000000" stroke-width="0.35 px" style="stroke-width:0.35;stroke-miterlimit:4;stroke-dasharray:none;fill:none;fill-opacity:1;fill-rule: evenodd"/>
<title>b'Sketch008'</title>
</g>
</svg>